<svg xmlns="http://www.w3.org/2000/svg" width="160" height="34" viewBox="0 0 160 34" fill="none"><path d="M26.8162 7.89744C26.8162 11.1996 23.6483 14.4563 17.5802 15.4384C22.265 16.1968 28.0661 18.8741 28.0661 24.4515C28.0661 29.181 23.2471 34 14.5465 34C12.1817 34 8.65661 33.2416 4.10533 33.2416C2.81146 33.2416 1.4281 33.2863 0 33.4646V33.0186L0.58019 32.9739C4.10533 32.6614 5.04198 32.1707 5.04198 29.0028V4.95249C5.04198 1.82931 4.10533 1.33861 0.58019 1.02614L0 0.936656V0.534699C1.4281 0.712932 2.9002 0.757677 4.28356 0.757677C9.19205 0.758422 13.5644 0 15.8844 0C19.32 0 26.8162 1.24912 26.8162 7.89744ZM10.1727 14.903H13.6978C19.5877 14.9477 21.4618 11.2891 21.4618 7.67446C21.4618 2.98969 17.8032 1.15963 14.9917 1.15963C12.8499 1.15963 11.4666 1.69508 10.1727 2.58773V14.903ZM10.1727 16.0186V28.5121C10.1727 30.5644 10.7082 32.8851 14.5458 32.8851C19.766 32.8851 22.7109 28.691 22.7109 24.4075C22.7109 20.1239 19.9002 16.0186 13.6531 16.0186H10.1727Z" fill="#183837"></path><path d="M43.2365 6.24707C47.6095 6.24707 50.8222 8.21062 52.8297 11.1556C49.2598 16.0193 42.8345 21.1948 40.5145 24.9429C38.9976 27.4419 38.6404 31.1005 40.425 32.3496C41.0499 32.6174 41.7636 32.7956 42.5668 32.7956C46.2254 32.7508 49.0369 28.512 47.966 23.6483C49.9735 23.693 52.6067 24.8527 52.6067 27.4411C52.6067 30.3413 49.7513 33.9112 42.6115 33.9112C25.7898 33.9112 25.8792 6.24707 43.2365 6.24707ZM38.5069 26.6387C39.3101 24.0957 41.5414 21.6415 43.5489 19.5884C46.1814 16.956 47.4753 14.1005 47.4753 11.8692C47.4753 9.37025 46.0472 7.36271 43.4147 7.36271C35.2935 7.36271 33.0183 24.8094 38.2832 30.788C37.926 29.3599 38.149 27.9326 38.5062 26.6387H38.5069Z" fill="#183837"></path><path d="M54.7031 27.0393C54.7031 15.9292 74.4251 18.7847 74.4251 12.0916C74.4251 9.19139 71.4354 7.67455 68.2227 7.67455C64.5194 7.67455 60.593 9.68209 60.5483 13.9657C60.5483 14.8583 60.7712 15.7062 61.218 16.5981C58.7637 17.1336 56.4437 15.349 56.4437 12.8948C56.4884 8.70069 61.9316 6.33594 66.6171 6.33594C71.3027 6.33594 76.5229 8.20999 76.3446 13.7874L75.9434 29.4488C75.8987 30.9657 76.7019 31.8583 77.505 31.8583C78.13 31.8583 78.8436 31.2781 79.0666 29.9843L79.4678 29.9395C79.3783 32.572 77.2813 33.9106 75.1843 33.9106C72.909 33.9106 70.5435 32.7502 70.5882 29.2698V27.3958C68.8924 31.5451 65.9475 33.8659 62.1554 33.9106C58.1395 33.9106 54.7039 31.2781 54.7039 27.0393H54.7031ZM59.9681 26.1466C59.9681 28.6896 61.4409 31.0551 64.4299 31.0551C68.8917 31.0104 70.8105 25.0318 70.9887 21.4171L71.1669 16.9553C66.6156 19.1419 59.9673 19.2306 59.9673 26.1474L59.9681 26.1466Z" fill="#183837"></path><path d="M105.344 29.6279C105.299 31.1447 106.058 32.0374 106.817 32.0374C107.486 32.0374 108.156 31.4572 108.378 30.1633H108.78C108.646 32.7063 106.727 33.9114 104.719 33.9114C102.176 33.9114 100.123 32.8405 100.302 27.3966L100.659 17.5803C100.749 15.1261 101.328 7.85285 97.2684 7.85285C95.3496 7.85285 93.4308 10.0394 92.6276 11.199C90.6201 14.2334 89.2367 18.9182 89.2367 22.8006V22.7558V29.0029C89.2367 32.1708 90.1294 32.6615 93.6985 32.974L94.2339 33.0188V33.4647C91.289 33.2865 88.969 33.197 86.6482 33.197C84.3275 33.197 82.0522 33.2865 79.0625 33.4647V33.0188L79.6427 32.974C83.1678 32.6168 84.1045 32.1708 84.1045 29.0029V12.4489C84.1045 9.28095 83.2118 8.47778 79.6427 8.47778H79.0625V8.03183C82.9001 7.76411 85.4878 6.96094 88.79 4.77441H89.236V16.1082C90.4403 11.4675 93.7425 6.24726 99.0969 6.24726C105.433 6.24726 105.968 13.1633 105.79 18.1605L105.344 29.6279Z" fill="#183837"></path><path d="M123.547 7.36196C120.022 7.36196 115.471 11.4673 115.471 21.2835C115.471 27.2182 117.702 32.7956 122.61 32.7956C126.268 32.7956 129.08 28.512 128.009 23.6483C130.016 23.693 132.65 24.8527 132.65 27.4411C132.65 30.3413 129.794 33.9112 122.654 33.9112C105.833 33.9112 105.922 6.24707 123.279 6.24707C126.938 6.24707 130.641 7.80866 133.23 11.2443C130.776 14.3227 127.162 17.4914 124.217 20.3469L123.816 19.8114C126.626 16.777 127.653 14.9924 127.653 12.0027C127.653 9.01304 125.779 7.36196 123.548 7.36196H123.547Z" fill="#183837"></path><path d="M135.062 27.0393C135.062 15.9292 154.784 18.7847 154.784 12.0916C154.784 9.19139 151.795 7.67455 148.582 7.67455C144.879 7.67455 140.952 9.68209 140.908 13.9657C140.908 14.8583 141.131 15.7062 141.577 16.5981C139.122 17.1336 136.802 15.349 136.802 12.8948C136.847 8.70069 142.29 6.33594 146.976 6.33594C151.661 6.33594 156.882 8.20999 156.703 13.7874L156.302 29.4488C156.257 30.9657 157.06 31.8583 157.864 31.8583C158.489 31.8583 159.202 31.2781 159.425 29.9843L159.826 29.9395C159.737 32.572 157.64 33.9106 155.543 33.9106C153.268 33.9106 150.902 32.7502 150.947 29.2698V27.3958C149.251 31.5451 146.306 33.8659 142.514 33.9106C138.498 33.9106 135.062 31.2781 135.062 27.0393ZM140.327 26.1466C140.327 28.6896 141.8 31.0551 144.789 31.0551C149.251 31.0104 151.17 25.0318 151.348 21.4171L151.526 16.9553C146.975 19.1419 140.327 19.2306 140.327 26.1474L140.327 26.1466Z" fill="#183837"></path></svg>