<svg xmlns="http://www.w3.org/2000/svg" width="168" height="34" viewBox="0 0 168 34" fill="none"><path d="M14.3553 0.132812H19.7774L31.9105 33.51H24.6218L22.3996 26.6212H9.3776L7.24431 33.51H0L11.0665 2.35499C11.6442 0.888354 12.7553 0.132812 14.3553 0.132812ZM15.9108 6.8438L11.2442 21.0213H20.5774L15.9108 6.8438Z" fill="#183837"></path><path d="M40.0889 3.28883V11.0665C40.8 9.82204 41.8222 8.84428 43.2 8.0443C44.3555 7.37764 45.7777 7.06654 47.4665 7.06654C50.5331 7.06654 53.022 8.31096 54.9331 10.8442C56.8886 13.3331 57.8219 16.6664 57.8219 20.6663C57.8219 24.6662 56.8441 27.9106 54.9331 30.4883C53.9553 31.7328 52.6664 32.5772 50.9776 33.1549C49.3332 33.6883 47.6888 33.9994 46.0888 33.9994C42.9777 33.9994 40.0889 33.1549 37.4667 31.5994C34.8001 29.955 33.4668 26.844 33.4668 22.2663V0H36.7556C37.6445 0 38.4445 0.311105 39.1111 0.97776C39.7333 1.59997 40.0889 2.39996 40.0889 3.28883ZM51.1554 20.3996C51.1554 18.0886 50.6665 16.2664 49.6887 14.9331C48.711 13.5998 47.3777 12.8887 45.6888 12.8887C43.8666 12.8887 42.4889 13.5553 41.5111 14.8442C40.5333 16.1775 40.0445 18.0441 40.0445 20.3996C40.0445 23.1107 40.4889 25.0662 41.4222 26.3106C42.4 27.6884 43.7333 28.355 45.511 28.355C47.3332 28.355 48.711 27.6884 49.6887 26.3106C50.6665 24.9329 51.1554 22.9774 51.1554 20.3996Z" fill="#183837"></path><path d="M58.4434 24.9327H65.021C65.1099 26.2216 65.5543 27.1994 66.4877 27.866C67.421 28.4882 68.7543 28.8438 70.3543 28.8438C71.5098 28.8438 72.532 28.6215 73.3764 28.1771C74.1764 27.7327 74.532 27.1105 74.532 26.3105C74.532 25.1549 73.1986 24.2661 70.4431 23.6883C69.2876 23.5105 68.3987 23.2883 67.821 23.1105C64.3988 22.2661 62.0877 21.2439 60.9322 20.1328C59.6433 18.9328 58.9767 17.3773 58.9767 15.4662C58.9767 13.0218 59.91 10.9774 61.7766 9.37745C63.7322 7.86637 66.2654 7.15527 69.3321 7.15527C72.7098 7.15527 75.3764 7.91081 77.3763 9.37745C79.243 10.9774 80.2652 13.1107 80.3985 15.644H76.1764C74.9764 15.644 74.0431 15.1107 73.3764 13.9996C73.1098 13.7329 72.8431 13.4663 72.6209 13.1996C71.8209 12.6218 70.7542 12.3107 69.4209 12.3107C68.0876 12.3107 67.1543 12.4885 66.4877 12.8885C65.9099 13.2441 65.6432 13.8663 65.6432 14.6218C65.6432 15.644 67.3321 16.5329 70.6654 17.244C71.0654 17.3773 71.4209 17.4662 71.6876 17.5106C71.9542 17.5995 72.2209 17.5995 72.532 17.5995C75.8208 18.444 78.1319 19.4217 79.4208 20.5328C80.6652 21.6883 81.2874 23.2439 81.2874 25.1994C81.2874 28.0438 80.2652 30.266 78.1763 31.777C76.2208 33.1992 73.332 33.9103 69.4654 33.9103C65.5988 33.9103 63.0211 33.1548 61.2433 31.6882C59.3767 30.1771 58.4434 28.0438 58.4434 25.1994V24.8883V24.9327Z" fill="#183837"></path><path d="M93.8657 33.51C91.7324 33.6433 89.4213 33.5989 86.9325 33.4211C84.4436 33.2433 83.1992 31.6433 83.1992 28.6656V0.132812H86.7103C87.5547 0.132812 88.2658 0.443918 88.9325 1.06613C89.5991 1.73278 89.9102 2.48833 89.9102 3.3772V7.73267H93.8657V9.11043C93.8657 10.0882 93.5546 10.8882 92.9324 11.5104C92.2657 12.1326 91.5102 12.3993 90.5769 12.3993H89.9102V26.7545C89.9102 27.8656 90.5324 28.399 91.8657 28.399H93.9101V33.4211L93.8657 33.51Z" fill="#183837"></path><path d="M94.4429 33.5117V21.023C94.4429 18.4897 94.7984 16.4009 95.554 14.6676C96.3095 12.9343 97.3317 11.5565 98.6206 10.5343C99.865 9.55656 101.287 8.84547 102.932 8.40103C104.576 7.95659 106.265 7.73438 108.043 7.73438H108.976V14.6231H106.754C104.887 14.6231 103.509 15.0676 102.576 16.0009C101.687 16.9342 101.198 18.312 101.198 20.2675V33.5561H94.3984L94.4429 33.5117Z" fill="#183837"></path><path d="M126.176 32.3997C124.842 33.1108 123.376 33.5553 121.865 33.733C120.309 33.9108 119.02 33.9997 117.82 33.9997C115.509 33.9997 113.465 33.3775 111.732 32.0886C109.954 30.8442 109.109 28.7554 109.109 25.8665C109.109 23.1555 109.909 21.1999 111.465 20.0444C113.065 18.8889 115.065 18.1333 117.509 17.7333C117.82 17.7333 118.265 17.7333 118.665 17.6C119.154 17.5111 119.643 17.4222 120.22 17.3778C123.065 16.9778 124.487 16.1334 124.487 14.8445C124.487 13.8667 123.954 13.2445 122.976 12.9334C121.954 12.6668 121.065 12.489 120.22 12.489C119.331 12.489 118.487 12.6223 117.82 12.889C117.109 13.1556 116.576 13.6445 116.265 14.3556H109.776C110.043 12.3557 110.932 10.7112 112.487 9.42238C114.22 7.91129 116.709 7.2002 119.954 7.2002C123.554 7.2002 126.309 7.82241 128.131 9.02238C129.998 10.3112 130.931 12.1334 130.931 14.4445V23.2888C130.931 25.8665 130.442 27.8665 129.509 29.3331C128.531 30.7998 127.42 31.822 126.131 32.4886L126.176 32.3997ZM124.62 20.4444C123.731 20.8888 122.442 21.3333 120.842 21.6888L118.62 22.1777C117.465 22.4888 116.62 22.9332 116.087 23.4221C115.643 24.1332 115.376 24.8443 115.376 25.5554C115.376 26.5332 115.687 27.2887 116.265 27.8665C116.843 28.3998 117.687 28.622 118.798 28.622C120.62 28.622 121.998 28.1331 123.065 27.0665C124.087 26.0443 124.62 24.6221 124.62 22.7999V20.3555V20.4444Z" fill="#183837"></path><path d="M149.863 25.555H154.707C153.996 28.266 152.663 30.3104 150.618 31.7771C148.618 33.2437 146.085 33.9992 143.063 33.9992C139.374 33.9992 136.485 32.7993 134.396 30.3993C132.307 28.0882 131.285 24.7105 131.285 20.3995C131.285 16.0885 132.307 13.0219 134.307 10.6663C136.352 8.26638 139.285 7.06641 142.929 7.06641C146.796 7.06641 149.818 8.22194 151.951 10.5775C153.107 11.9996 153.951 13.6441 154.44 15.5551H147.685C147.329 14.8885 147.018 14.3996 146.707 14.0885C145.863 13.1996 144.663 12.7107 143.107 12.7107C141.685 12.7107 140.529 13.1552 139.596 14.0885C138.396 15.3774 137.863 17.5107 137.863 20.4884C137.863 23.4661 138.396 25.555 139.596 26.7994C140.441 27.8216 141.685 28.3549 143.374 28.3549C144.485 28.3549 145.418 28.1327 146.218 27.6882C146.396 27.5994 146.574 27.5105 146.752 27.3327C146.885 27.1549 147.063 27.0216 147.285 26.7994C147.418 26.6216 147.685 26.3549 148.04 25.9994C148.396 25.6883 149.018 25.5105 149.774 25.5105L149.863 25.555Z" fill="#183837"></path><path d="M167.241 33.51C165.107 33.6433 162.796 33.5989 160.307 33.4211C157.819 33.2433 156.574 31.6433 156.574 28.6656V0.132812H160.085C160.93 0.132812 161.685 0.443918 162.307 1.06613C162.974 1.73278 163.285 2.48833 163.285 3.3772V7.73267H167.285V9.11043C167.285 10.0882 166.93 10.8882 166.307 11.5104C165.641 12.1326 164.885 12.3993 163.952 12.3993H163.285V26.7545C163.285 27.8656 163.952 28.399 165.241 28.399H167.285V33.4211L167.241 33.51Z" fill="#183837"></path></svg>