<svg xmlns="http://www.w3.org/2000/svg" width="115" height="34" viewBox="0 0 115 34" fill="none"><path fill-rule="evenodd" clip-rule="evenodd" d="M46.8676 11.4687C43.713 11.4687 41.749 13.0451 40.9701 16.1979H52.4686C51.962 13.0451 50.0975 11.4687 46.8676 11.4687ZM75.4915 11.8163L70.2093 4.81558H59.4108L64.7803 11.8163H75.4915ZM59.4108 33.1226L80.7756 4.81651H91.5723L80.8034 18.8524L91.5723 33.1235H81.1241L75.4915 25.7788L69.8589 33.1235H59.4108V33.1226ZM61.3394 18.3533C61.3394 19.8739 61.2836 21.0004 61.1647 21.744H41.0296C41.9247 24.7778 44.0457 26.2938 47.3918 26.2938C49.3744 26.2938 50.815 25.6125 51.7092 24.2508H61.108C60.4081 27.1684 58.802 29.4856 56.2915 31.1949C53.7838 32.9079 50.776 33.7676 47.2728 33.7676C42.6831 33.7676 38.9476 32.3846 36.0671 29.6185C33.2285 26.8979 31.8065 23.3381 31.8065 18.9398C31.8065 14.5416 33.1895 11.0793 35.951 8.31597C38.7933 5.55358 42.4489 4.17332 46.9233 4.17332C51.0465 4.17332 54.492 5.49688 57.2553 8.14401C59.9796 10.7484 61.3403 14.1502 61.3403 18.3533H61.3394ZM107.154 34H114.856V25.3039H109.663C106.707 25.3039 105.226 23.8818 105.226 21.0413V12.9252H114.855V4.81651H105.226V0H95.7716V4.81651L89.4968 12.9261H95.7716V21.3341C95.7716 25.1849 96.8024 28.2605 98.863 30.5563C100.927 32.8484 103.691 34 107.154 34ZM17.2742 4.17425C20.8582 4.17425 23.7535 5.36118 25.9731 7.73412C28.1908 10.0727 29.3015 13.2217 29.3015 17.1887V33.3587H19.846V18.7084C19.846 16.7602 19.3859 15.2823 18.4732 14.2748C17.5568 13.2607 16.2843 12.7542 14.6503 12.7542C12.8601 12.7542 11.1462 13.6883 9.51405 15.5556V33.3587H0V5.05167H9.51405V6.91897C11.926 5.08699 14.5137 4.17332 17.2742 4.17332V4.17425Z" fill="#183837"></path></svg>