<svg xmlns="http://www.w3.org/2000/svg" width="142" height="34" viewBox="0 0 142 34" fill="none"><path fill-rule="evenodd" clip-rule="evenodd" d="M10.8532 20.2281L4.60246 6.17073C4.56573 6.08928 4.49548 6.04297 4.40607 6.04297H0.216577C0.138344 6.04297 0.0776726 6.07651 0.0361609 6.14039C-0.0053509 6.20587 -0.0117373 6.27454 0.0201948 6.34481L9.09371 26.6148C9.13043 26.6963 9.20068 26.7426 9.29009 26.7426H12.8569C12.9447 26.7426 13.0166 26.6979 13.0517 26.6164L22.2386 6.34801C22.2705 6.27774 22.2657 6.20747 22.2242 6.14358C22.1827 6.0781 22.122 6.04457 22.0438 6.04457H17.8495C17.7617 6.04457 17.6898 6.09088 17.6531 6.17073L11.3082 20.2297C11.2667 20.3224 11.1805 20.3767 11.0799 20.3767C10.9793 20.3767 10.8931 20.3208 10.8516 20.2281H10.8532Z" fill="#183837"></path><path fill-rule="evenodd" clip-rule="evenodd" d="M80.8827 5.78946C75.5389 6.45064 71.5234 11.0087 71.5234 16.3924C71.5234 21.7761 75.5373 26.3342 80.8827 26.9953C81.3218 27.0496 81.7641 27.0768 82.2063 27.0768C82.6486 27.0768 83.0908 27.0496 83.5299 26.9953C88.8738 26.3342 92.8892 21.7761 92.8892 16.3924C92.8892 11.0087 88.8754 6.44905 83.5299 5.78946C83.0908 5.73516 82.6486 5.70801 82.2063 5.70801C81.7641 5.70801 81.3218 5.73516 80.8827 5.78946ZM83.3527 10.0488C86.4182 10.5966 88.6486 13.2813 88.6486 16.3924C88.6486 19.5035 86.3719 22.2345 83.2681 22.7503C82.9168 22.8078 82.5608 22.8382 82.2047 22.8382C81.8487 22.8382 81.4927 22.8094 81.1414 22.7503L81.052 22.736C77.9897 22.1866 75.7608 19.5019 75.7608 16.394C75.7608 13.2861 78.0376 10.5519 81.1414 10.0361C81.4927 9.97857 81.8487 9.94823 82.2047 9.94823C82.5608 9.94823 82.9168 9.97697 83.2681 10.0361L83.3527 10.0504V10.0488Z" fill="#183837"></path><path fill-rule="evenodd" clip-rule="evenodd" d="M105.437 5.78937C100.094 6.45056 96.0781 11.0086 96.0781 16.3923C96.0781 21.776 100.092 26.3341 105.437 26.9953C105.876 27.0496 106.319 27.0767 106.761 27.0767C107.203 27.0767 107.646 27.0496 108.085 26.9953C113.428 26.3341 117.444 21.776 117.444 16.3923V0.215604C117.444 0.0974212 117.347 0 117.228 0H113.42C113.302 0 113.205 0.0974212 113.205 0.215604V16.3939C113.205 19.5385 110.928 22.236 107.824 22.7518C107.473 22.8093 107.117 22.8397 106.761 22.8397C106.405 22.8397 106.049 22.8109 105.698 22.7518L105.608 22.7375C102.546 22.1881 100.317 19.5034 100.317 16.3955C100.317 13.2876 102.594 10.5534 105.698 10.0376C106.049 9.98008 106.405 9.94974 106.761 9.94974C107.117 9.94974 107.473 9.97849 107.824 10.0376L107.909 10.052C108.907 10.2308 109.847 10.6445 110.654 11.2577C110.722 11.3104 110.802 11.3168 110.879 11.2785C110.955 11.2402 110.998 11.1715 110.998 11.0869V6.72685C110.998 6.63582 110.951 6.56395 110.866 6.52882C109.977 6.1583 109.039 5.91235 108.085 5.79417C107.646 5.73987 107.203 5.71272 106.761 5.71272C106.319 5.71272 105.876 5.73987 105.437 5.79417V5.78937Z" fill="#183837"></path><path fill-rule="evenodd" clip-rule="evenodd" d="M31.7656 5.78946C26.4217 6.45064 22.4062 11.0087 22.4062 16.3924C22.4062 21.7761 26.4201 26.3342 31.7656 26.9953C32.2046 27.0496 32.6469 27.0768 33.0891 27.0768C33.5314 27.0768 33.9737 27.0496 34.4127 26.9953C35.3675 26.8772 36.3047 26.6312 37.194 26.2607C37.277 26.2255 37.3265 26.1537 37.3265 26.0627V21.7027C37.3265 21.6164 37.2834 21.5477 37.2068 21.5094C37.1302 21.4711 37.0503 21.4791 36.9817 21.5302C36.1514 22.161 35.1823 22.5794 34.1541 22.7487C33.8028 22.8062 33.4468 22.8366 33.0907 22.8366C32.7347 22.8366 32.3787 22.8078 32.0274 22.7487L31.938 22.7344C28.8757 22.185 26.6468 19.5003 26.6468 16.3924C26.6468 13.2845 28.9236 10.5503 32.0274 10.0345C32.3787 9.97697 32.7347 9.94663 33.0907 9.94663C33.4468 9.94663 33.8028 9.97538 34.1541 10.0345L34.2387 10.0488C37.3042 10.5966 39.5346 13.2813 39.5346 16.3924V26.5274C39.5346 26.6456 39.632 26.743 39.7502 26.743H43.5581C43.6762 26.743 43.7736 26.6456 43.7736 26.5274V16.3924C43.7736 11.0087 39.7598 6.44905 34.4143 5.78946C33.9753 5.73516 33.533 5.70801 33.0907 5.70801C32.6485 5.70801 32.2062 5.73516 31.7672 5.78946H31.7656Z" fill="#183837"></path><path fill-rule="evenodd" clip-rule="evenodd" d="M56.3242 5.78933C50.9803 6.45052 46.9648 11.0086 46.9648 16.3923C46.9648 21.776 50.9787 26.334 56.3242 26.9952C56.7632 27.0495 57.2055 27.0767 57.6477 27.0767C58.09 27.0767 58.5323 27.0495 58.9713 26.9952C64.3152 26.334 68.3306 21.776 68.3306 16.3923C68.3306 11.0086 64.3168 6.44892 58.9713 5.78933C58.5323 5.73503 58.09 5.70788 57.6477 5.70788C57.2055 5.70788 56.7632 5.73503 56.3242 5.78933ZM66.7133 2.4834C65.254 2.4834 64.0709 3.66683 64.0709 5.12655C64.0709 6.58627 65.254 7.7697 66.7133 7.7697C68.1726 7.7697 69.3557 6.58627 69.3557 5.12655C69.3557 3.66683 68.1726 2.4834 66.7133 2.4834ZM50.2379 27.3721C50.0559 27.2412 49.8787 27.1054 49.7046 26.9649C49.6136 26.8914 49.4763 26.9058 49.4029 26.9968L47.0143 29.9642C46.9409 30.0552 46.9553 30.1925 47.0463 30.266C49.4971 32.2416 52.4364 33.4841 55.5594 33.8706C56.2523 33.9568 56.95 34 57.6477 34C58.3455 34 59.0432 33.9568 59.7361 33.8706C62.8591 33.4841 65.7984 32.2416 68.2492 30.266C68.3402 30.1925 68.3562 30.0552 68.2811 29.9642L65.8926 26.9968C65.8192 26.9058 65.6819 26.8898 65.5909 26.9649C65.4168 27.1054 65.238 27.2412 65.0576 27.3721C63.3317 28.6178 61.3279 29.402 59.2156 29.6639C58.6951 29.7278 58.1714 29.7613 57.6477 29.7613C57.1241 29.7613 56.6004 29.7294 56.0799 29.6639C53.9676 29.4036 51.9638 28.6178 50.2379 27.3721ZM58.7941 10.0487C61.8596 10.5965 64.09 13.2812 64.09 16.3923C64.09 19.5034 61.8133 22.2343 58.7095 22.7502C58.3582 22.8077 58.0022 22.838 57.6461 22.838C57.2901 22.838 56.9341 22.8093 56.5828 22.7502L56.4934 22.7358C53.4311 22.1864 51.2022 19.5018 51.2022 16.3939C51.2022 13.286 53.479 10.5518 56.5828 10.0359C56.9341 9.97844 57.2901 9.9481 57.6461 9.9481C58.0022 9.9481 58.3582 9.97685 58.7095 10.0359L58.7941 10.0503V10.0487Z" fill="#183837"></path><path fill-rule="evenodd" clip-rule="evenodd" d="M129.992 5.78946C124.648 6.45064 120.633 11.0087 120.633 16.3924C120.633 21.7761 124.647 26.3342 129.992 26.9953C130.431 27.0496 130.873 27.0768 131.316 27.0768C131.758 27.0768 132.2 27.0496 132.639 26.9953C133.594 26.8772 134.531 26.6312 135.421 26.2607C135.504 26.2255 135.553 26.1537 135.553 26.0627V21.7027C135.553 21.6164 135.512 21.5477 135.433 21.5094C135.357 21.4711 135.277 21.4791 135.208 21.5302C134.378 22.161 133.409 22.5794 132.381 22.7487C132.029 22.8062 131.673 22.8366 131.317 22.8366C130.961 22.8366 130.605 22.8078 130.254 22.7487L130.165 22.7344C127.102 22.185 124.873 19.5003 124.873 16.3924C124.873 13.2845 127.15 10.5503 130.254 10.0345C130.605 9.97697 130.961 9.94663 131.317 9.94663C131.673 9.94663 132.029 9.97538 132.381 10.0345L132.465 10.0488C135.531 10.5966 137.761 13.2813 137.761 16.3924V26.5274C137.761 26.6456 137.859 26.743 137.977 26.743H141.785C141.903 26.743 142 26.6456 142 26.5274V16.3924C142 11.0087 137.986 6.44905 132.641 5.78946C132.202 5.73516 131.76 5.70801 131.317 5.70801C130.875 5.70801 130.433 5.73516 129.994 5.78946H129.992Z" fill="#183837"></path></svg>