<svg xmlns="http://www.w3.org/2000/svg" width="174" height="34" viewBox="0 0 174 34" fill="none"><path fill-rule="evenodd" clip-rule="evenodd" d="M44.3702 20.7896H55.7893L50.0571 5.3166L44.3702 20.7896ZM57.5925 25.7541H42.524L39.5177 33.9992H33.9452L46.5095 0H53.6086L66.2358 33.9984H60.6664L57.5925 25.7533V25.7541ZM78.1627 29.0347H88.7053C90.259 29.0347 93.1223 28.898 94.3064 27.7131C95.4802 26.5393 95.628 23.8699 95.628 22.3265V11.9095C95.628 10.363 95.4937 7.46708 94.3192 6.28376C93.1406 5.09646 90.255 4.96454 88.7053 4.96454H78.1627V29.0347ZM72.8438 33.9992V0H89.2887C92.3197 0 96.1343 0.42199 98.4127 2.65433C100.682 4.87712 101.124 8.63768 101.124 11.6504V22.2812C101.124 25.3138 100.677 29.0863 98.4 31.3282C96.1255 33.5661 92.3221 33.9984 89.2895 33.9984H72.8446L72.8438 33.9992ZM116.372 20.7904H127.791L122.058 5.31739L116.372 20.7904ZM129.594 25.7549H114.525L111.519 34H105.947L118.511 0H125.61L138.237 33.9984H132.668L129.594 25.7533V25.7549ZM167.807 26.4813V0H173.126V33.9984H166.243L150.164 7.479V33.9984H144.845V0H151.727L167.806 26.4797L167.807 26.4813ZM5.31898 13.6531H6.80191L19.878 0H27.0423L11.3468 16.2661L28.9941 33.9984H21.6208L6.80827 18.8902H5.31898V33.9984H0V0H5.31898V13.6531Z" fill="#183837"></path></svg>