<svg xmlns="http://www.w3.org/2000/svg" version="1.1" xmlns:xlink="http://www.w3.org/1999/xlink" xmlns:svgjs="http://svgjs.dev/svgjs" width="2000" height="1247" viewBox="0 0 2000 1247"><g transform="matrix(1,0,0,1,-1.2121212121212466,0.504858299595071)"><svg viewBox="0 0 396 247" data-background-color="#ffffff" preserveAspectRatio="xMidYMid meet" height="1247" width="2000" xmlns="http://www.w3.org/2000/svg" xmlns:xlink="http://www.w3.org/1999/xlink"><g id="tight-bounds" transform="matrix(1,0,0,1,0.2400000000000091,-0.09999999999999432)"><svg viewBox="0 0 395.52 247.2" height="247.2" width="395.52"><g><svg></svg></g><g><svg viewBox="0 0 395.52 247.2" height="247.2" width="395.52"><g transform="matrix(1,0,0,1,75.54432,96.04443021541408)"><svg viewBox="0 0 244.43135999999998 55.11113956917184" height="55.11113956917184" width="244.43135999999998"><g><svg viewBox="0 0 244.43135999999998 55.11113956917184" height="55.11113956917184" width="244.43135999999998"><g><svg viewBox="0 0 244.43136 55.11113956917185" height="55.11113956917184" width="244.43135999999998"><g><svg viewBox="0 0 244.43136 55.11113956917185" height="55.11113956917185" width="244.43136"><g id="textblocktransform"><svg viewBox="0 0 244.43136 55.11113956917185" height="55.11113956917185" width="244.43136" id="textblock"><g><svg viewBox="0 0 244.43136 55.11113956917185" height="55.11113956917185" width="244.43136"><g transform="matrix(1,0,0,1,0,0)"><svg width="244.43136" viewBox="1.95 -36.95 208.88000000000002 47.1" height="55.11113956917185" data-palette-color="#4257d3"><path d="M21.25 7.6L21.25 7.6Q20.9 7.6 20.58 7.58 20.25 7.55 19.9 7.5L19.9 7.5Q19.6 5.35 19.45 3.23 19.3 1.1 19.25-0.8L19.25-0.8Q16.85 0.3 14.3 0.3L14.3 0.3Q11.1 0.3 8.28-1.45 5.45-3.2 3.7-6.8 1.95-10.4 1.95-15.85L1.95-15.85Q1.95-21.15 3.6-25 5.25-28.85 7.9-31.35 10.55-33.85 13.65-35.05 16.75-36.25 19.65-36.25L19.65-36.25Q22.25-36.25 24.4-35.38 26.55-34.5 27.83-32.93 29.1-31.35 29.1-29.15L29.1-29.15Q29.1-27.35 28.1-25.75 27.1-24.15 25.05-23.18 23-22.2 19.85-22.2L19.85-22.2Q20.35-23.65 20.55-24.8 20.75-25.95 20.75-26.8L20.75-26.8Q20.75-28.7 19.95-29.38 19.15-30.05 18.1-30.05L18.1-30.05Q16.05-30.05 14.4-28.2 12.75-26.35 11.8-23.38 10.85-20.4 10.85-17L10.85-17Q10.85-12.15 12.75-9.4 14.65-6.65 17.5-6.65L17.5-6.65Q18.6-6.65 19.8-7.1L19.8-7.1 19.8-7.15Q19.8-10.9 20.48-13.13 21.15-15.35 22.23-16.3 23.3-17.25 24.45-17.25L24.45-17.25Q25.7-17.25 26.83-16.4 27.95-15.55 28.7-14.23 29.45-12.9 29.45-11.35L29.45-11.35Q29.45-9.95 28.68-8.53 27.9-7.1 26.05-5.95L26.05-5.95Q25.95-5.55 25.9-5.15 25.85-4.75 25.85-4.35L25.85-4.35Q25.85-3 26.43-1.3 27 0.4 28.25 3.45L28.25 3.45Q27.95 4.6 26.88 5.55 25.8 6.5 24.33 7.05 22.85 7.6 21.25 7.6ZM41.95-26.75L41.95-26.75Q39.95-26.75 38.67-27.98 37.4-29.2 37.4-31.05L37.4-31.05Q37.4-33.05 38.9-34.5 40.4-35.95 42.55-35.95L42.55-35.95Q44.55-35.95 45.82-34.7 47.1-33.45 47.1-31.6L47.1-31.6Q47.1-29.6 45.6-28.18 44.1-26.75 41.95-26.75ZM38.45 0.2L38.45 0.2Q36.5 0.2 34.95-1.18 33.4-2.55 33.4-5.6L33.4-5.6Q33.4-7.35 33.87-8.88 34.35-10.4 34.97-11.85 35.6-13.3 36.07-14.68 36.55-16.05 36.55-17.4L36.55-17.4Q36.55-18.6 36.15-19.13 35.75-19.65 35.2-19.65L35.2-19.65Q34.35-19.65 33.55-18.55L33.55-18.55 33.2-18.75Q33.4-20.75 34.47-22.18 35.55-23.6 37.12-24.4 38.7-25.2 40.25-25.2L40.25-25.2Q42.15-25.2 43.55-23.98 44.95-22.75 44.95-20L44.95-20Q44.95-18.35 44.47-16.53 44-14.7 43.37-12.9 42.75-11.1 42.27-9.55 41.8-8 41.8-6.9L41.8-6.9Q41.8-5.95 42.17-5.55 42.55-5.15 43-5.15L43-5.15Q43.45-5.15 43.87-5.43 44.3-5.7 44.5-6.05L44.5-6.05 44.85-5.95Q44.85-4.1 43.87-2.73 42.9-1.35 41.45-0.58 40 0.2 38.45 0.2ZM54.05 10.15L54.05 10.15Q52.59 10.15 51.3 9.63 50 9.1 49.5 8.05L49.5 8.05Q50.7 2.95 51.47-1 52.25-4.95 52.7-8.05 53.15-11.15 53.34-13.73 53.55-16.3 53.59-18.7L53.59-18.7Q51.9-18.6 50.34-18.38 48.8-18.15 47.65-17.75L47.65-17.75 47.55-18.1Q49-19.55 50.55-20.53 52.09-21.5 53.65-22.1L53.65-22.1 53.65-25.9Q53.65-29.75 55.2-32.18 56.75-34.6 59.17-35.77 61.59-36.95 64.2-36.95L64.2-36.95Q67.65-36.95 69.37-35.3 71.09-33.65 71.09-31.6L71.09-31.6Q71.09-30.1 70.17-28.7 69.25-27.3 67.4-26.38 65.55-25.45 62.75-25.45L62.75-25.45Q63.55-26.9 63.97-28.35 64.4-29.8 64.4-30.9L64.4-30.9Q64.4-31.75 64.15-32.27 63.9-32.8 63.45-32.8L63.45-32.8Q62.5-32.8 61.62-30.43 60.75-28.05 60.75-24.2L60.75-24.2 60.75-23.25Q62.2-23.3 63.52-23.2 64.84-23.1 66-23L66-23Q66.09-22.65 66.15-22.25 66.2-21.85 66.2-21.45L66.2-21.45Q66.2-20.7 66-19.95 65.8-19.2 65.45-18.4L65.45-18.4Q64.55-18.5 63.4-18.6 62.25-18.7 60.95-18.75L60.95-18.75 60.95-17.65Q60.95-14.9 60.72-11.3 60.5-7.7 59.9-2.75 59.3 2.2 58.05 9.05L58.05 9.05Q56.5 10.15 54.05 10.15ZM75.79 0.2L75.79 0.2Q74.19 0.2 72.77-0.53 71.34-1.25 70.47-2.8 69.59-4.35 69.59-6.75L69.59-6.75Q69.59-8.05 69.84-10.15 70.09-12.25 70.52-14.75 70.94-17.25 71.39-19.75L71.39-19.75Q70.39-19.7 69.47-19.55 68.54-19.4 67.64-19.2L67.64-19.2 67.54-19.55Q68.54-20.75 69.64-21.6 70.74-22.45 71.94-23L71.94-23Q72.59-26.3 73.04-28.73 73.49-31.15 73.49-31.6L73.49-31.6Q73.49-32.45 74.82-33 76.14-33.55 77.79-33.55L77.79-33.55Q79.24-33.55 80.52-33 81.79-32.45 82.24-31.15L82.24-31.15Q81.94-30.85 81.39-28.93 80.84-27 80.24-24.25L80.24-24.25Q81.19-24.2 82.19-24.15 83.19-24.1 84.24-24L84.24-24Q84.34-23.7 84.39-23.35 84.44-23 84.44-22.6L84.44-22.6Q84.44-21.85 84.22-20.98 83.99-20.1 83.69-19.4L83.69-19.4Q82.49-19.5 81.44-19.63 80.39-19.75 79.39-19.8L79.39-19.8Q78.99-17.65 78.67-15.5 78.34-13.35 78.17-11.6 77.99-9.85 77.99-8.85L77.99-8.85Q77.99-6.75 78.77-6.05 79.54-5.35 80.64-5.35L80.64-5.35Q81.64-5.35 82.44-5.75 83.24-6.15 83.59-6.7L83.59-6.7 84.09-6.55Q83.79-4.5 82.49-2.98 81.19-1.45 79.39-0.63 77.59 0.2 75.79 0.2ZM100.09 0.2L100.09 0.2Q98.64 0.25 97.19-0.05 95.74-0.35 94.74-1.3L94.74-1.3Q94.79-2.55 94.72-5 94.64-7.45 94.44-10.48 94.24-13.5 93.82-16.6 93.39-19.7 92.72-22.33 92.04-24.95 91.09-26.55 90.14-28.15 88.84-28.15L88.84-28.15Q87.69-28.15 86.24-26.9L86.24-26.9 85.89-27.2Q87.29-31.5 89.57-33.75 91.84-36 94.29-36L94.29-36Q96.44-36 97.89-34.5 99.34-33 100.22-30.48 101.09-27.95 101.47-24.83 101.84-21.7 101.84-18.45L101.84-18.45Q101.84-15.85 101.64-13.35 101.44-10.85 101.09-8.75L101.09-8.75Q103.74-12.1 105.54-16.07 107.34-20.05 108.29-23.98 109.24-27.9 109.24-31.05L109.24-31.05Q109.24-31.65 109.19-32.27 109.14-32.9 109.04-33.4L109.04-33.4Q110.09-34.75 111.74-35.48 113.39-36.2 115.04-36.2L115.04-36.2Q116.64-36.2 117.84-35.52 119.04-34.85 119.34-33.4L119.34-33.4Q118.69-28.65 116.77-23.9 114.84-19.15 112.09-14.73 109.34-10.3 106.22-6.5 103.09-2.7 100.09 0.2ZM129.64-26.75L129.64-26.75Q127.64-26.75 126.36-27.98 125.09-29.2 125.09-31.05L125.09-31.05Q125.09-33.05 126.59-34.5 128.09-35.95 130.24-35.95L130.24-35.95Q132.24-35.95 133.51-34.7 134.79-33.45 134.79-31.6L134.79-31.6Q134.79-29.6 133.29-28.18 131.79-26.75 129.64-26.75ZM126.14 0.2L126.14 0.2Q124.19 0.2 122.64-1.18 121.09-2.55 121.09-5.6L121.09-5.6Q121.09-7.35 121.56-8.88 122.04-10.4 122.66-11.85 123.29-13.3 123.76-14.68 124.24-16.05 124.24-17.4L124.24-17.4Q124.24-18.6 123.84-19.13 123.44-19.65 122.89-19.65L122.89-19.65Q122.04-19.65 121.24-18.55L121.24-18.55 120.89-18.75Q121.09-20.75 122.16-22.18 123.24-23.6 124.81-24.4 126.39-25.2 127.94-25.2L127.94-25.2Q129.84-25.2 131.24-23.98 132.64-22.75 132.64-20L132.64-20Q132.64-18.35 132.16-16.53 131.69-14.7 131.06-12.9 130.44-11.1 129.96-9.55 129.49-8 129.49-6.9L129.49-6.9Q129.49-5.95 129.86-5.55 130.24-5.15 130.69-5.15L130.69-5.15Q131.14-5.15 131.56-5.43 131.99-5.7 132.19-6.05L132.19-6.05 132.54-5.95Q132.54-4.1 131.56-2.73 130.59-1.35 129.14-0.58 127.69 0.2 126.14 0.2ZM149.64 0.2L149.64 0.2Q147.64 0.2 145.99-0.68 144.34-1.55 143.29-3.25L143.29-3.25Q143.24-2.3 142.59-1.5 141.94-0.7 140.14-0.7L140.14-0.7Q138.14-0.7 137.19-1.8 136.24-2.9 136.24-4.7L136.24-4.7Q136.24-5.8 136.54-7.88 136.84-9.95 137.26-12.55 137.69-15.15 138.11-17.95 138.54-20.75 138.84-23.4 139.14-26.05 139.14-28.15L139.14-28.15Q139.14-29.55 138.99-30.6 138.84-31.65 138.44-32.25L138.44-32.25 138.44-32.55Q139.59-33.8 140.84-34.43 142.09-35.05 143.24-35.05L143.24-35.05Q144.94-35.05 146.14-33.7 147.34-32.35 147.34-29.4L147.34-29.4Q147.34-27.95 147.04-25.33 146.74-22.7 146.29-20.1L146.29-20.1Q148.09-22.65 150.11-24 152.14-25.35 154.04-25.35L154.04-25.35Q156.59-25.35 158.39-22.93 160.19-20.5 160.19-15.6L160.19-15.6Q160.19-12.7 159.51-9.88 158.84-7.05 157.49-4.78 156.14-2.5 154.16-1.15 152.19 0.2 149.64 0.2ZM147.14-4.85L147.14-4.85Q148.74-4.85 149.86-6.25 150.99-7.65 151.56-9.83 152.14-12 152.14-14.3L152.14-14.3Q152.14-15.8 151.89-17.18 151.64-18.55 151.14-19.43 150.64-20.3 149.84-20.3L149.84-20.3Q148.44-20.3 146.66-17.03 144.89-13.75 143.89-7.75L143.89-7.75Q144.79-4.85 147.14-4.85ZM173.68 0.35L173.68 0.35Q170.03 0.35 167.63-1.13 165.23-2.6 164.03-5.03 162.83-7.45 162.83-10.25L162.83-10.25Q162.83-12.9 163.86-15.58 164.88-18.25 166.86-20.45 168.83-22.65 171.66-24 174.48-25.35 178.03-25.35L178.03-25.35Q182.43-25.35 184.46-23.38 186.48-21.4 186.48-18.6L186.48-18.6Q186.48-16.2 185.21-14.18 183.93-12.15 181.83-10.93 179.73-9.7 177.23-9.7L177.23-9.7Q175.93-9.7 174.58-10.1 173.23-10.5 171.93-11.35L171.93-11.35Q172.18-8.25 173.73-6.85 175.28-5.45 177.43-5.45L177.43-5.45Q178.93-5.45 180.43-6.03 181.93-6.6 183.21-7.53 184.48-8.45 185.18-9.5L185.18-9.5 185.53-9.25Q185.53-6.65 184.46-4.83 183.38-3 181.63-1.85 179.88-0.7 177.81-0.18 175.73 0.35 173.68 0.35ZM174.83-13.15L174.83-13.15Q176.43-13.15 177.43-14.08 178.43-15 178.93-16.25 179.43-17.5 179.43-18.45L179.43-18.45Q179.43-19.6 178.78-20.38 178.13-21.15 176.98-21.15L176.98-21.15Q176.08-21.15 175.01-20.5 173.93-19.85 173.08-18.28 172.23-16.7 171.98-13.9L171.98-13.9Q173.58-13.15 174.83-13.15ZM197.48 0.45L197.48 0.45Q194.38 0.45 192.33-0.4 190.28-1.25 189.28-2.58 188.28-3.9 188.28-5.25L188.28-5.25Q188.28-7.15 189.98-8.63 191.68-10.1 194.58-10.1L194.58-10.1Q194.58-7.55 195.23-6.03 195.88-4.5 196.91-3.85 197.93-3.2 198.88-3.2L198.88-3.2Q200.03-3.2 200.81-3.88 201.58-4.55 201.58-5.55L201.58-5.55Q201.58-6.95 200.13-8 198.68-9.05 196.38-10.35L196.38-10.35Q195.23-11.05 193.88-11.98 192.53-12.9 191.58-14.23 190.63-15.55 190.63-17.4L190.63-17.4Q190.63-19.35 191.76-20.85 192.88-22.35 194.73-23.38 196.58-24.4 198.73-24.93 200.88-25.45 202.93-25.45L202.93-25.45Q206.78-25.45 208.73-23.9 210.68-22.35 210.68-20.6L210.68-20.6Q210.68-19.1 209.18-17.9 207.68-16.7 204.58-16.7L204.58-16.7Q204.63-19.25 203.53-20.43 202.43-21.6 201.18-21.6L201.18-21.6Q200.28-21.6 199.68-21.05 199.08-20.5 199.08-19.45L199.08-19.45Q199.08-18.25 199.86-17.38 200.63-16.5 201.81-15.83 202.98-15.15 204.23-14.55L204.23-14.55Q205.93-13.75 207.43-12.85 208.93-11.95 209.88-10.8 210.83-9.65 210.83-8L210.83-8Q210.83-5.75 209.01-3.83 207.18-1.9 204.13-0.73 201.08 0.45 197.48 0.45Z" opacity="1" transform="matrix(1,0,0,1,0,0)" fill="#4257d3" class="wordmark-text-0" data-fill-palette-color="primary" id="text-0"></path></svg></g></svg></g></svg></g></svg></g></svg></g></svg></g></svg></g><path d="M200.543 90.044L200.543 30.44 386.863 30.44 386.863 216.76 200.543 216.76 200.543 157.156 205.513 157.156 205.513 211.79 381.893 211.79 381.893 35.41 205.513 35.41 205.513 90.044Z" fill="#ca4b92" stroke="transparent" data-fill-palette-color="tertiary"></path></svg></g><defs></defs></svg><rect width="395.52" height="247.2" fill="none" stroke="none" visibility="hidden"></rect></g></svg></g></svg>