<svg xmlns="http://www.w3.org/2000/svg" version="1.1" xmlns:xlink="http://www.w3.org/1999/xlink" xmlns:svgjs="http://svgjs.dev/svgjs" width="2000" height="1247" viewBox="0 0 2000 1247"><g transform="matrix(1,0,0,1,-1.2121212121212466,0.504858299595071)"><svg viewBox="0 0 396 247" data-background-color="#e8f2f1" preserveAspectRatio="xMidYMid meet" height="1247" width="2000" xmlns="http://www.w3.org/2000/svg" xmlns:xlink="http://www.w3.org/1999/xlink"><g id="tight-bounds" transform="matrix(1,0,0,1,0.2400000000000091,-0.09999999999999432)"><svg viewBox="0 0 395.52 247.2" height="247.2" width="395.52"><g><svg></svg></g><g><svg viewBox="0 0 395.52 247.2" height="247.2" width="395.52"><g transform="matrix(1,0,0,1,75.54432,101.21629499800346)"><svg viewBox="0 0 244.43135999999998 44.76741000399308" height="44.76741000399308" width="244.43135999999998"><g><svg viewBox="0 0 244.43135999999998 44.76741000399308" height="44.76741000399308" width="244.43135999999998"><g><svg viewBox="0 0 244.43136 44.767410003993085" height="44.76741000399308" width="244.43135999999998"><g><svg viewBox="0 0 244.43136 44.767410003993085" height="44.767410003993085" width="244.43136"><g id="textblocktransform"><svg viewBox="0 0 244.43136 44.767410003993085" height="44.767410003993085" width="244.43136" id="textblock"><g><svg viewBox="0 0 244.43136 44.767410003993085" height="44.767410003993085" width="244.43136"><g transform="matrix(1,0,0,1,0,0)"><svg width="244.43136" viewBox="2.6 -33.8 187.81 34.4" height="44.767410003993085" data-palette-color="#183837"><path d="M13.6 0.6L13.6 0.6Q9.98 0.6 7.53-0.86 5.08-2.33 3.84-5.13 2.6-7.93 2.6-11.9L2.6-11.9 2.6-19.45Q2.6-25.75 5.84-29.14 9.08-32.52 15.35-32.52L15.35-32.52Q17.6-32.52 19.44-32.16 21.28-31.8 22.7-31.21 24.13-30.63 25.15-29.98L25.15-29.98 25.53-26.23Q23.8-27.33 21.46-28.15 19.13-28.98 16.05-28.98L16.05-28.98Q11.4-28.98 9.11-26.5 6.83-24.03 6.83-19.38L6.83-19.38 6.83-11.93Q6.83-7.63 8.84-5.29 10.85-2.95 14.88-2.95L14.88-2.95Q16.93-2.95 18.39-3.65 19.85-4.35 20.79-5.5 21.73-6.65 22.15-8.03L22.15-8.03 22.15-15.9 22.83-14.43 15.3-14.43 15.3-17.88 26.2-17.88 26.2-5.25 22.13-5.28Q21.73-3.73 20.75-2.38 19.78-1.03 18.03-0.21 16.28 0.6 13.6 0.6ZM22.15 0L22.33-6.6 26.2-6.6 26.2 0 22.15 0ZM36.92 0L32.87 0 32.87-24.4 36.92-24.4 36.92 0ZM34.9-28.4L34.9-28.4Q33.65-28.4 33.03-29.06 32.42-29.73 32.42-30.88L32.42-30.88 32.42-31Q32.42-32.18 33.03-32.83 33.65-33.48 34.9-33.48L34.9-33.48Q36.15-33.48 36.77-32.83 37.4-32.18 37.4-31L37.4-31 37.4-30.88Q37.4-29.7 36.77-29.05 36.15-28.4 34.9-28.4ZM51.82-33.8L51.82-33.8Q53.7-33.8 55.18-33.46 56.67-33.13 57.92-32.63L57.92-32.63 58.32-29.45Q57.09-29.9 55.86-30.16 54.62-30.43 53.07-30.43L53.07-30.43Q51.2-30.43 50.06-29.94 48.92-29.45 48.43-28.56 47.95-27.68 47.95-26.43L47.95-26.43 47.95-26.3Q47.95-25.43 48.17-24.64 48.4-23.85 48.67-23.2L48.67-23.2 45.95-23.1 45.95-23.6Q45.17-24.2 44.58-25.28 43.99-26.35 43.99-27.78L43.99-27.78 43.99-27.9Q43.99-30.58 45.9-32.19 47.8-33.8 51.82-33.8ZM48.84 0L44.82 0 44.82-22.23 48.84-22.23 48.84 0ZM57.84-20.25L40.8-20.25 40.8-23.48 46.37-23.45 48.02-23.48 58.22-23.48 57.84-20.25ZM71.27 0.5L71.27 0.5Q68.44 0.5 66.72-0.35 64.99-1.2 64.22-2.93 63.44-4.65 63.44-7.23L63.44-7.23 63.44-22.63 67.44-22.63 67.44-7.7Q67.44-5.3 68.54-4.16 69.64-3.03 72.24-3.03L72.24-3.03Q73.72-3.03 75.08-3.35 76.44-3.68 77.64-4.28L77.64-4.28 77.27-0.8Q76.09-0.2 74.52 0.15 72.94 0.5 71.27 0.5ZM77.02-20.8L59.44-20.8 59.44-24.05 77.39-24.05 77.02-20.8ZM67.34-23.65L63.47-23.65 63.44-30.5 67.52-31.03 67.34-23.65ZM96.44 0L89.82 0 80.09-31.95 84.44-31.95 92.82-3.15 93.42-3.15 101.82-31.95 106.14-31.95 96.44 0ZM114.79 0L110.74 0 110.74-24.4 114.79-24.4 114.79 0ZM112.76-28.4L112.76-28.4Q111.51-28.4 110.9-29.06 110.29-29.73 110.29-30.88L110.29-30.88 110.29-31Q110.29-32.18 110.9-32.83 111.51-33.48 112.76-33.48L112.76-33.48Q114.01-33.48 114.64-32.83 115.26-32.18 115.26-31L115.26-31 115.26-30.88Q115.26-29.7 114.64-29.05 114.01-28.4 112.76-28.4ZM133.51 0.53L133.51 0.53Q131.26 0.53 129.6-0.23 127.94-0.98 126.91-2.38 125.89-3.78 125.54-5.63L125.54-5.63 124.19-5.63 125.41-9.43Q125.54-7.23 126.45-5.76 127.36-4.3 128.89-3.58 130.41-2.85 132.34-2.85L132.34-2.85Q135.39-2.85 137-4.65 138.61-6.45 138.61-10L138.61-10 138.61-14.58Q138.61-18.05 136.99-19.85 135.36-21.65 132.26-21.65L132.26-21.65Q130.41-21.65 128.99-20.93 127.56-20.2 126.62-18.95 125.69-17.7 125.34-16.1L125.34-16.1 124.41-18.93 125.56-18.93Q125.94-20.6 126.9-21.96 127.86-23.33 129.54-24.14 131.21-24.95 133.69-24.95L133.69-24.95Q138.09-24.95 140.39-22.21 142.69-19.48 142.69-14.28L142.69-14.28 142.69-10.23Q142.69-4.98 140.35-2.23 138.01 0.53 133.51 0.53ZM125.54 0L121.49 0 121.49-33.13 125.51-33.13 125.51-25.18 125.39-18.18 125.41-17.4 125.41-7.2 125.36-5.9 125.54 0ZM158.58 0.55L158.58 0.55Q153.01 0.55 150.18-2.18 147.36-4.9 147.36-9.98L147.36-9.98 147.36-14.33Q147.36-19.48 149.98-22.26 152.61-25.05 157.66-25.05L157.66-25.05Q161.06-25.05 163.33-23.79 165.61-22.53 166.76-20.2 167.91-17.88 167.91-14.65L167.91-14.65 167.91-13.75Q167.91-12.95 167.85-12.15 167.78-11.35 167.68-10.58L167.68-10.58 163.96-10.58Q164.01-11.78 164.02-12.85 164.03-13.93 164.03-14.83L164.03-14.83Q164.03-17.05 163.32-18.59 162.61-20.13 161.2-20.94 159.78-21.75 157.66-21.75L157.66-21.75Q154.51-21.75 152.93-19.93 151.36-18.1 151.36-14.7L151.36-14.7 151.36-12.38 151.38-11.88 151.38-9.55Q151.38-8.03 151.83-6.8 152.28-5.58 153.25-4.69 154.21-3.8 155.7-3.34 157.18-2.88 159.23-2.88L159.23-2.88Q161.61-2.88 163.66-3.5 165.71-4.13 167.51-5.2L167.51-5.2 167.13-1.7Q165.51-0.68 163.36-0.06 161.21 0.55 158.58 0.55ZM166.83-10.58L149.48-10.58 149.48-13.63 166.83-13.63 166.83-10.58ZM180.93 0.55L180.93 0.55Q177.98 0.55 175.78-0.09 173.58-0.73 172.13-1.48L172.13-1.48 171.76-5.23Q173.58-4.28 175.77-3.58 177.96-2.88 180.73-2.88L180.73-2.88Q183.56-2.88 184.98-3.78 186.41-4.67 186.41-6.45L186.41-6.45 186.41-6.73Q186.41-7.88 185.87-8.63 185.33-9.38 183.93-9.95 182.53-10.53 179.96-11.1L179.96-11.1Q176.88-11.78 175.11-12.69 173.33-13.6 172.57-14.95 171.81-16.3 171.81-18.25L171.81-18.25 171.81-18.48Q171.81-21.68 174.03-23.33 176.26-24.98 180.73-24.98L180.73-24.98Q183.61-24.98 185.72-24.33 187.83-23.68 189.18-22.88L189.18-22.88 189.56-19.45Q187.93-20.4 185.83-21.03 183.73-21.65 181.11-21.65L181.11-21.65Q179.21-21.65 178.03-21.26 176.86-20.88 176.33-20.16 175.81-19.45 175.81-18.45L175.81-18.45 175.81-18.25Q175.81-17.15 176.33-16.39 176.86-15.63 178.22-15.06 179.58-14.5 182.01-13.98L182.01-13.98Q185.13-13.35 186.97-12.48 188.81-11.6 189.61-10.26 190.41-8.93 190.41-6.83L190.41-6.83 190.41-6.4Q190.41-2.95 188.01-1.2 185.61 0.55 180.93 0.55Z" opacity="1" transform="matrix(1,0,0,1,0,0)" fill="#183837" class="wordmark-text-0" data-fill-palette-color="primary" id="text-0"></path></svg></g></svg></g></svg></g></svg></g></svg></g></svg></g></svg></g><path d="M208.302 95.216L208.302 33.746 388.009 33.746 388.009 213.454 208.302 213.454 208.302 151.984 212.339 151.984 212.339 209.417 383.972 209.417 383.972 37.783 212.339 37.783 212.339 95.216Z" fill="#e33054" stroke="transparent" data-fill-palette-color="tertiary"></path></svg></g><defs></defs></svg><rect width="395.52" height="247.2" fill="none" stroke="none" visibility="hidden"></rect></g></svg></g></svg>