<svg xmlns="http://www.w3.org/2000/svg" version="1.1" xmlns:xlink="http://www.w3.org/1999/xlink" xmlns:svgjs="http://svgjs.dev/svgjs" width="128" height="128" viewBox="0 0 128 128"><g transform="matrix(0.8046875,0,0,0.8046875,12.376825691772552,6.87421580429023)"><svg viewBox="0 0 53 59" data-background-color="#000000" preserveAspectRatio="xMidYMid meet" height="142" width="128" xmlns="http://www.w3.org/2000/svg" xmlns:xlink="http://www.w3.org/1999/xlink"><g id="tight-bounds" transform="matrix(1,0,0,1,0.06338095471897986,-0.0036289999999894462)"><svg viewBox="0 0 52.873238090562054 59.00725799999999" height="59.00725799999999" width="52.873238090562054"><g><svg viewBox="0 0 52.873238090562054 59.00725799999999" height="59.00725799999999" width="52.873238090562054"><g><svg viewBox="0 0 52.873238090562054 59.00725799999999" height="59.00725799999999" width="52.873238090562054"><g><svg viewBox="0 0 52.873238090562054 59.00725799999999" height="59.00725799999999" width="52.873238090562054"><g id="textblocktransform"><svg viewBox="0 0 52.873238090562054 59.00725799999999" height="59.00725799999999" width="52.873238090562054" id="textblock"><g><svg viewBox="0 0 52.873238090562054 59.00725799999999" height="59.00725799999999" width="52.873238090562054"><g><svg viewBox="0 0 52.873238090562054 59.00725799999999" height="59.00725799999999" width="52.873238090562054"><g><svg xmlns="http://www.w3.org/2000/svg" xmlns:xlink="http://www.w3.org/1999/xlink" version="1.1" x="0" y="0" viewBox="14 8.530999999999999 73 81.469" enable-background="new 0 0 100 100" xml:space="preserve" height="59.00725799999999" width="52.873238090562054" class="icon-icon-0" data-fill-palette-color="accent" id="icon-0"></svg></g></svg></g></svg></g></svg></g></svg></g></svg></g></svg></g><defs></defs><mask id="a9c792fc-75e4-4693-b76e-211978536421"><g id="SvgjsG2977"><svg viewBox="0 0 52.873238090562054 59.00725799999999" height="59.00725799999999" width="52.873238090562054"><g><svg viewBox="0 0 52.873238090562054 59.00725799999999" height="59.00725799999999" width="52.873238090562054"><g><svg viewBox="0 0 52.873238090562054 59.00725799999999" height="59.00725799999999" width="52.873238090562054"><g><svg viewBox="0 0 52.873238090562054 59.00725799999999" height="59.00725799999999" width="52.873238090562054"><g id="SvgjsG2976"><svg viewBox="0 0 52.873238090562054 59.00725799999999" height="59.00725799999999" width="52.873238090562054" id="SvgjsSvg2975"><g><svg viewBox="0 0 52.873238090562054 59.00725799999999" height="59.00725799999999" width="52.873238090562054"><g><svg viewBox="0 0 52.873238090562054 59.00725799999999" height="59.00725799999999" width="52.873238090562054"><g><svg xmlns="http://www.w3.org/2000/svg" xmlns:xlink="http://www.w3.org/1999/xlink" version="1.1" x="0" y="0" viewBox="14 8.530999999999999 73 81.469" enable-background="new 0 0 100 100" xml:space="preserve" height="59.00725799999999" width="52.873238090562054" class="icon-icon-0" data-fill-palette-color="accent" id="SvgjsSvg2974"><path d="M81 61.839C81 60.271 79.729 59 78.161 59H46.839C45.271 59 44 60.271 44 61.839v25.322C44 88.729 45.271 90 46.839 90h31.322C79.729 90 81 88.729 81 87.161V61.839z" fill="white"></path><path d="M87 38.839C87 37.271 85.729 36 84.161 36H46.839C45.271 36 44 37.271 44 38.839v12.322C44 52.729 45.271 54 46.839 54h37.322C85.729 54 87 52.729 87 51.161V38.839z" fill="white"></path><path d="M37 87.161C37 88.729 35.729 90 34.161 90H22.839C21.271 90 20 88.729 20 87.161V61.839C20 60.271 21.271 59 22.839 59h11.322C35.729 59 37 60.271 37 61.839V87.161z" fill="white"></path><path d="M37 51.16c0 1.568-1.271 2.84-2.839 2.84H16.839C15.271 54 14 52.729 14 51.16V38.839C14 37.271 15.271 36 16.839 36h17.322C35.729 36 37 37.271 37 38.839V51.16z" fill="white"></path><path d="M78.221 13.109c-1.655-2.867-5.098-4.578-9.205-4.578-9.352 0-15.979 8.532-19.234 13.918-3.261-5.38-9.886-13.864-19.217-13.864-5.918 0-10.212 3.561-10.212 8.392 0 8.568 9.675 14.158 29.124 14.158 19.449 0 29.754-7.186 29.754-14.087C79.229 15.676 78.928 14.333 78.221 13.109zM30.463 21.642c-3.269-1.68-4.433-3.566-4.433-4.772 0-1.542 1.906-2.661 4.534-2.661 6.33 0 11.339 6.29 14.061 10.669C37.333 24.411 32.957 22.925 30.463 21.642zM73.111 18.305c-1.647 2.851-7.258 5.873-18.128 6.572 2.744-4.378 7.776-10.667 14.032-10.667 2.421 0 3.802 0.898 4.288 1.739C73.69 16.619 73.625 17.412 73.111 18.305z" fill="white"></path></svg></g></svg></g></svg></g></svg></g></svg></g></svg></g></svg></g><defs><mask></mask></defs></svg><rect width="52.873238090562054" height="59.00725799999999" fill="black" stroke="none" visibility="hidden"></rect></g></mask><linearGradient x1="0" x2="1" y1="0.548" y2="0.55" id="8dc98c21-808d-4ed1-aaef-df879832e4c4"><stop stop-color="#ff6cab" offset="0"></stop><stop stop-color="#7366ff" offset="1"></stop></linearGradient><rect width="52.873238090562054" height="59.00725799999999" fill="url(#8dc98c21-808d-4ed1-aaef-df879832e4c4)" mask="url(#a9c792fc-75e4-4693-b76e-211978536421)" data-fill-palette-color="accent"></rect></svg><rect width="52.873238090562054" height="59.00725799999999" fill="none" stroke="none" visibility="hidden"></rect></g></svg></g></svg>